<svg viewBox="0 0 80 80" id="calendar_box" xmlns="http://www.w3.org/2000/svg">
    <path d="M-227.5-862.5h-47a1.5 1.5 0 0 0 0 3h47a1.5 1.5 0 0 0 0-3z" fill="#fff"></path>
    <path
        d="M-229-874.5h-3v-2.5a1.5 1.5 0 0 0-3 0v2.5h-32v-2.5a1.5 1.5 0 0 0-3 0v2.5h-3c-6.627 0-12 5.373-12 12v37c0 6.627 5.373 12 12 12h44c6.627 0 12-5.373 12-12v-37c0-6.627-5.373-12-12-12zm9 49c0 4.963-4.037 9-9 9h-44c-4.963 0-9-4.037-9-9v-37c0-4.963 4.037-9 9-9h3v2.5a1.5 1.5 0 0 0 3 0v-2.5h32v2.5a1.5 1.5 0 0 0 3 0v-2.5h3c4.963 0 9 4.037 9 9z"
        fill="#fff"></path>
    <path d="M-583-1291H597v2560H-583z" fill="none"></path>
    <path
        d="M-273-874.5h44c6.627 0 12 5.373 12 12v37c0 6.627-5.373 12-12 12h-44c-6.627 0-12-5.373-12-12v-37c0-6.627 5.373-12 12-12z"
        fill="none"></path>
    <g fill="#fff">
        <path d="M63.5 23.5h-47a1.5 1.5 0 0 0 0 3h47a1.5 1.5 0 0 0 0-3z"></path>
        <path
            d="M62 11.5h-3V9a1.5 1.5 0 0 0-3 0v2.5H24V9a1.5 1.5 0 0 0-3 0v2.5h-3c-6.627 0-12 5.373-12 12v37c0 6.627 5.373 12 12 12h44c6.627 0 12-5.373 12-12v-37c0-6.627-5.373-12-12-12zm9 49c0 4.963-4.037 9-9 9H18c-4.963 0-9-4.037-9-9v-37c0-4.963 4.037-9 9-9h3V17a1.5 1.5 0 0 0 3 0v-2.5h32V17a1.5 1.5 0 0 0 3 0v-2.5h3c4.963 0 9 4.037 9 9z">
        </path>
    </g>
</svg>