<svg width="128" height="128" viewBox="0 0 128 128" fill="none" xmlns="http://www.w3.org/2000/svg">
<rect width="128" height="128" rx="32" fill="url(#paint0_linear_213_214)"/>
<g filter="url(#filter0_di_213_214)">
<path fill-rule="evenodd" clip-rule="evenodd" d="M64.0016 26C84.9876 26 102 43.0124 102 64.0016C102 84.9876 84.9876 102 64.0016 102C43.0124 102 26 84.9876 26 64.0016C26 43.0124 43.0124 26 64.0016 26ZM69.7571 39.5185C65.7232 40.8525 63.7856 44.6133 64.9418 48.8823L65.3547 50.4545C64.4828 50.6416 63.6268 50.8964 62.7946 51.2169C58.8528 52.7383 55.7209 56.1084 54.6282 60.0185C54.2377 61.4121 54.1032 62.8649 54.2312 64.3065C54.5075 67.4479 56.1815 70.3733 58.713 72.1298C61.0952 73.7879 63.9508 74.2738 66.7491 73.502C68.7169 72.9635 70.4568 71.8009 71.7074 70.1891C73.6322 67.6734 74.2071 64.37 73.3241 60.8824C73.0033 59.6151 72.5999 58.2048 72.206 56.8453L71.7868 55.3652C73.4566 55.7833 74.9944 56.6145 76.259 57.7823C80.617 61.8544 81.4555 68.8677 78.2125 74.096C75.3633 78.6858 69.8111 81.6556 64.0683 81.6556C59.4135 81.6506 54.9508 79.7995 51.6591 76.5083C48.3674 73.2172 46.5154 68.7548 46.5095 64.1001C46.5102 61.8431 46.9571 59.6086 47.8245 57.5251C48.6018 55.6448 49.7039 53.9159 51.0803 52.4175C52.4541 50.9267 54.0745 49.6835 55.8702 48.7425C56.3738 48.4801 56.8901 48.2426 57.4171 48.031C57.7182 47.9109 57.9928 47.7326 58.225 47.5064C58.4573 47.2801 58.6427 47.0104 58.7707 46.7125C58.8987 46.4146 58.9668 46.0944 58.9711 45.7702C58.9754 45.446 58.9157 45.1241 58.7956 44.8229C58.6755 44.5218 58.4972 44.2472 58.2709 44.0149C58.0447 43.7827 57.7749 43.5972 57.477 43.4692C57.1791 43.3412 56.8589 43.2732 56.5347 43.2689C56.2105 43.2646 55.8887 43.3243 55.5875 43.4444C51.665 45.0109 48.271 47.6643 45.8044 51.093C43.061 54.8769 41.5805 59.4295 41.5735 64.1032C41.5735 76.5036 51.6647 86.5948 64.0683 86.5948C71.4787 86.5948 78.6794 82.7102 82.4052 76.7005C86.9442 69.3918 85.7721 59.92 79.6259 54.1804C77.1103 51.8299 73.8355 50.4482 70.3828 50.1433L69.7063 47.5895C69.5443 47.0019 69.468 46.3317 69.6427 45.7377C69.8301 45.1289 70.245 44.6157 70.8012 44.3051C71.3573 43.9945 72.0119 43.9103 72.6285 44.0701C72.9747 44.1591 73.2987 44.3242 73.5846 44.537C73.8831 44.7657 74.115 45.0548 74.3882 45.3089C74.819 45.7116 75.3797 45.9467 75.9688 45.9717C76.558 45.9968 77.1366 45.81 77.6 45.4453C78.0633 45.0806 78.3808 44.5621 78.4949 43.9835C78.609 43.405 78.5122 42.8047 78.222 42.2914L78.1902 42.2342C77.8951 41.7708 77.5272 41.3579 77.1008 41.0113C75.9254 40.0112 74.4815 39.3793 72.9493 39.1945C71.8741 39.0714 70.785 39.1799 69.7571 39.5185ZM66.6252 55.2317C66.8889 56.2005 67.1747 57.2074 67.4606 58.2048C67.8481 59.5516 68.2325 60.8888 68.5374 62.0958C68.8963 63.5061 69.0551 65.5326 67.7878 67.1874C67.1929 67.9464 66.3683 68.4924 65.4373 68.7438C64.7779 68.9342 64.084 68.9731 63.4075 68.8576C62.731 68.742 62.0893 68.4752 61.5304 68.0768C60.8528 67.5913 60.2888 66.9643 59.8774 66.2393C59.4661 65.5142 59.2173 64.7084 59.1482 63.8777C59.0733 63.0287 59.1529 62.1731 59.3832 61.3525C60.0629 58.9131 62.0513 56.7945 64.5701 55.8257C65.2435 55.5653 65.9328 55.3683 66.6252 55.2317Z" fill="white"/>
</g>
<defs>
<filter id="filter0_di_213_214" x="22" y="26" width="84" height="84" filterUnits="userSpaceOnUse" color-interpolation-filters="sRGB">
<feFlood flood-opacity="0" result="BackgroundImageFix"/>
<feColorMatrix in="SourceAlpha" type="matrix" values="0 0 0 0 0 0 0 0 0 0 0 0 0 0 0 0 0 0 127 0" result="hardAlpha"/>
<feOffset dy="4"/>
<feGaussianBlur stdDeviation="2"/>
<feComposite in2="hardAlpha" operator="out"/>
<feColorMatrix type="matrix" values="0 0 0 0 0 0 0 0 0 0 0 0 0 0 0 0 0 0 0.25 0"/>
<feBlend mode="normal" in2="BackgroundImageFix" result="effect1_dropShadow_213_214"/>
<feBlend mode="normal" in="SourceGraphic" in2="effect1_dropShadow_213_214" result="shape"/>
<feColorMatrix in="SourceAlpha" type="matrix" values="0 0 0 0 0 0 0 0 0 0 0 0 0 0 0 0 0 0 127 0" result="hardAlpha"/>
<feOffset/>
<feGaussianBlur stdDeviation="1"/>
<feComposite in2="hardAlpha" operator="arithmetic" k2="-1" k3="1"/>
<feColorMatrix type="matrix" values="0 0 0 0 0 0 0 0 0 0 0 0 0 0 0 0 0 0 0.25 0"/>
<feBlend mode="normal" in2="shape" result="effect2_innerShadow_213_214"/>
</filter>
<linearGradient id="paint0_linear_213_214" x1="64" y1="0" x2="64" y2="128" gradientUnits="userSpaceOnUse">
<stop stop-color="#FB5C74"/>
<stop offset="1" stop-color="#FA233B"/>
</linearGradient>
</defs>
</svg>
